<mxfile host="app.diagrams.net" modified="2023-08-26T09:10:45.087Z" agent="Mozilla/5.0 (iPad; CPU OS 15_7 like Mac OS X) AppleWebKit/605.1.15 (KHTML, like Gecko) GSA/196.0.423110124 Mobile/15E148 Safari/604.1" etag="KyemeUcO2WL_vGF8LcJI" version="21.6.9" type="github">
  <diagram id="yPxyJZ8AM_hMuL3Unpa9" name="gitflow">
    <mxGraphModel dx="1563" dy="1511" grid="1" gridSize="10" guides="1" tooltips="1" connect="1" arrows="1" fold="1" page="1" pageScale="1" pageWidth="850" pageHeight="1100" math="0" shadow="0">
      <root>
        <mxCell id="0" />
        <mxCell id="1" parent="0" />
        <mxCell id="3" value="" style="endArrow=none;dashed=1;html=1;fillColor=#dae8fc;strokeColor=#6c8ebf;exitX=1;exitY=0.5;exitDx=0;exitDy=0;" parent="1" target="7" edge="1">
          <mxGeometry width="50" height="50" relative="1" as="geometry">
            <mxPoint x="860" as="sourcePoint" />
            <mxPoint x="838" y="-1" as="targetPoint" />
          </mxGeometry>
        </mxCell>
        <mxCell id="4" value="" style="ellipse;whiteSpace=wrap;html=1;aspect=fixed;fillColor=#dae8fc;strokeColor=#6c8ebf;fontStyle=1;labelPosition=center;verticalLabelPosition=top;align=center;verticalAlign=bottom;fontColor=#0066CC;" parent="1" vertex="1">
          <mxGeometry x="-30" y="70.5" width="20" height="20" as="geometry" />
        </mxCell>
        <mxCell id="7" value="stable" style="text;html=1;strokeColor=#6c8ebf;fillColor=#dae8fc;align=center;verticalAlign=middle;whiteSpace=wrap;rounded=0;" parent="1" vertex="1">
          <mxGeometry x="1001.06" y="-9.5" width="90" height="20" as="geometry" />
        </mxCell>
        <mxCell id="13" value="" style="endArrow=none;dashed=1;html=1;fillColor=#dae8fc;strokeColor=#6c8ebf;" parent="1" source="6" edge="1">
          <mxGeometry width="50" height="50" relative="1" as="geometry">
            <mxPoint x="89" y="-1" as="sourcePoint" />
            <mxPoint x="840" as="targetPoint" />
          </mxGeometry>
        </mxCell>
        <mxCell id="20" value="main" style="text;html=1;strokeColor=#b85450;fillColor=#f8cecc;align=center;verticalAlign=middle;whiteSpace=wrap;rounded=0;" parent="1" vertex="1">
          <mxGeometry x="1001.06" y="70.5" width="90" height="20" as="geometry" />
        </mxCell>
        <mxCell id="23" style="edgeStyle=orthogonalEdgeStyle;rounded=1;orthogonalLoop=1;jettySize=auto;html=1;dashed=1;endArrow=none;endFill=0;fillColor=#d5e8d4;strokeColor=#82b366;" parent="1" source="78" target="24" edge="1">
          <mxGeometry relative="1" as="geometry">
            <mxPoint x="818" y="141" as="targetPoint" />
          </mxGeometry>
        </mxCell>
        <mxCell id="172" style="edgeStyle=orthogonalEdgeStyle;rounded=1;orthogonalLoop=1;jettySize=auto;html=1;dashed=1;endArrow=none;endFill=0;fontSize=12;fontColor=#FFB570;fillColor=#e1d5e7;strokeColor=#D79B00;entryX=0;entryY=0.5;entryDx=0;entryDy=0;exitX=0.5;exitY=1;exitDx=0;exitDy=0;" parent="1" source="Jbub15Q6l6OJpJLMfqSW-180" edge="1">
          <mxGeometry relative="1" as="geometry">
            <Array as="points">
              <mxPoint x="80" y="240" />
            </Array>
            <mxPoint x="60" y="200" as="sourcePoint" />
            <mxPoint x="150.970000000038" y="241" as="targetPoint" />
          </mxGeometry>
        </mxCell>
        <mxCell id="24" value="test" style="text;html=1;strokeColor=#82b366;fillColor=#d5e8d4;align=center;verticalAlign=middle;whiteSpace=wrap;rounded=0;" parent="1" vertex="1">
          <mxGeometry x="1001.06" y="151.5" width="90" height="20" as="geometry" />
        </mxCell>
        <mxCell id="26" style="edgeStyle=orthogonalEdgeStyle;rounded=1;orthogonalLoop=1;jettySize=auto;html=1;dashed=1;endArrow=none;endFill=0;fillColor=#d5e8d4;strokeColor=#82b366;entryX=0;entryY=0.5;entryDx=0;entryDy=0;" parent="1" source="Jbub15Q6l6OJpJLMfqSW-180" edge="1">
          <mxGeometry relative="1" as="geometry">
            <mxPoint x="312" y="161" as="targetPoint" />
            <mxPoint x="90" y="161" as="sourcePoint" />
          </mxGeometry>
        </mxCell>
        <mxCell id="29" value="" style="ellipse;whiteSpace=wrap;html=1;aspect=fixed;fillColor=#d5e8d4;strokeColor=#82b366;" parent="1" vertex="1">
          <mxGeometry x="428.97" y="151" width="20" height="20" as="geometry" />
        </mxCell>
        <mxCell id="30" style="edgeStyle=orthogonalEdgeStyle;rounded=1;orthogonalLoop=1;jettySize=auto;html=1;dashed=1;endArrow=none;endFill=0;fillColor=#d5e8d4;strokeColor=#82b366;" parent="1" target="29" edge="1">
          <mxGeometry relative="1" as="geometry">
            <mxPoint x="680" y="141" as="targetPoint" />
            <mxPoint x="332" y="161" as="sourcePoint" />
          </mxGeometry>
        </mxCell>
        <mxCell id="35" value="" style="endArrow=none;dashed=1;html=1;fillColor=#dae8fc;strokeColor=#6c8ebf;entryX=0;entryY=0.5;entryDx=0;entryDy=0;" parent="1" source="4" target="omxdYrItEWUYWYLtwcN8-177" edge="1">
          <mxGeometry width="50" height="50" relative="1" as="geometry">
            <mxPoint x="49.9999999999917" y="70" as="sourcePoint" />
            <mxPoint x="690" y="70" as="targetPoint" />
            <Array as="points">
              <mxPoint x="-20" />
            </Array>
          </mxGeometry>
        </mxCell>
        <mxCell id="152" style="edgeStyle=orthogonalEdgeStyle;rounded=1;orthogonalLoop=1;jettySize=auto;html=1;dashed=1;endArrow=none;endFill=0;fontSize=12;fontColor=#FFB570;entryX=0;entryY=0.5;entryDx=0;entryDy=0;strokeColor=#D6B656;" parent="1" source="Jbub15Q6l6OJpJLMfqSW-180" edge="1">
          <mxGeometry relative="1" as="geometry">
            <Array as="points">
              <mxPoint x="80" y="320" />
            </Array>
            <mxPoint x="50" y="210" as="sourcePoint" />
            <mxPoint x="150.970000000038" y="321" as="targetPoint" />
          </mxGeometry>
        </mxCell>
        <mxCell id="118" style="edgeStyle=orthogonalEdgeStyle;rounded=1;orthogonalLoop=1;jettySize=auto;html=1;dashed=1;endArrow=none;endFill=0;fontSize=12;fontColor=#FFB570;strokeColor=#D6B656;" parent="1" source="Jbub15Q6l6OJpJLMfqSW-193" target="Jbub15Q6l6OJpJLMfqSW-194" edge="1">
          <mxGeometry relative="1" as="geometry">
            <mxPoint x="170.9699999999616" y="321" as="sourcePoint" />
            <mxPoint x="230" y="321" as="targetPoint" />
          </mxGeometry>
        </mxCell>
        <mxCell id="82" style="edgeStyle=orthogonalEdgeStyle;rounded=1;orthogonalLoop=1;jettySize=auto;html=1;dashed=1;endArrow=none;endFill=0;fillColor=#d5e8d4;strokeColor=#82b366;" parent="1" source="29" edge="1">
          <mxGeometry relative="1" as="geometry">
            <mxPoint x="548.94" y="161" as="targetPoint" />
            <mxPoint x="499" y="121" as="sourcePoint" />
          </mxGeometry>
        </mxCell>
        <mxCell id="86" value="module 1" style="text;html=1;strokeColor=#d79b00;fillColor=#ffe6cc;align=center;verticalAlign=middle;whiteSpace=wrap;rounded=0;" parent="1" vertex="1">
          <mxGeometry x="1001.06" y="231.5" width="90" height="20" as="geometry" />
        </mxCell>
        <mxCell id="102" value="module 2" style="text;html=1;strokeColor=#d6b656;fillColor=#fff2cc;align=center;verticalAlign=middle;whiteSpace=wrap;rounded=0;" parent="1" vertex="1">
          <mxGeometry x="1001.06" y="311.5" width="90" height="20" as="geometry" />
        </mxCell>
        <mxCell id="116" style="edgeStyle=orthogonalEdgeStyle;rounded=1;orthogonalLoop=1;jettySize=auto;html=1;dashed=1;endArrow=none;endFill=0;fontSize=12;fontColor=#FFB570;fillColor=#e1d5e7;strokeColor=#D79B00;" parent="1" source="Jbub15Q6l6OJpJLMfqSW-187" target="Jbub15Q6l6OJpJLMfqSW-190" edge="1">
          <mxGeometry relative="1" as="geometry">
            <mxPoint x="170.9699999999998" y="241" as="sourcePoint" />
            <mxPoint x="230" y="241" as="targetPoint" />
            <Array as="points">
              <mxPoint x="190" y="240" />
              <mxPoint x="190" y="240" />
            </Array>
          </mxGeometry>
        </mxCell>
        <mxCell id="78" value="" style="ellipse;whiteSpace=wrap;html=1;aspect=fixed;fontSize=12;fillColor=#d5e8d4;strokeColor=#82b366;" parent="1" vertex="1">
          <mxGeometry x="668.97" y="151" width="20" height="20" as="geometry" />
        </mxCell>
        <mxCell id="146" style="edgeStyle=orthogonalEdgeStyle;rounded=1;orthogonalLoop=1;jettySize=auto;html=1;dashed=1;endArrow=none;endFill=0;fillColor=#d5e8d4;strokeColor=#82b366;" parent="1" target="78" edge="1">
          <mxGeometry relative="1" as="geometry">
            <mxPoint x="839" y="121" as="targetPoint" />
            <mxPoint x="568.94" y="161" as="sourcePoint" />
            <Array as="points" />
          </mxGeometry>
        </mxCell>
        <mxCell id="omxdYrItEWUYWYLtwcN8-177" value="stable" style="ellipse;whiteSpace=wrap;html=1;aspect=fixed;fillColor=#dae8fc;strokeColor=#6c8ebf;fontStyle=1;labelPosition=center;verticalLabelPosition=top;align=center;verticalAlign=bottom;fontColor=#0066CC;" parent="1" vertex="1">
          <mxGeometry x="70" y="-10" width="20" height="20" as="geometry" />
        </mxCell>
        <mxCell id="omxdYrItEWUYWYLtwcN8-178" value="" style="endArrow=none;dashed=1;html=1;fillColor=#dae8fc;strokeColor=#6c8ebf;entryX=0;entryY=0.5;entryDx=0;entryDy=0;exitX=1;exitY=0.5;exitDx=0;exitDy=0;" parent="1" source="omxdYrItEWUYWYLtwcN8-177" target="6" edge="1">
          <mxGeometry width="50" height="50" relative="1" as="geometry">
            <mxPoint x="110" y="30" as="sourcePoint" />
            <mxPoint x="90" y="41" as="targetPoint" />
            <Array as="points" />
          </mxGeometry>
        </mxCell>
        <mxCell id="GZBNLEmFhGwPz-_52qx3-182" value="" style="endArrow=none;dashed=1;html=1;fillColor=#dae8fc;strokeColor=#6c8ebf;exitX=0;exitY=0.5;exitDx=0;exitDy=0;entryX=1;entryY=0.5;entryDx=0;entryDy=0;" parent="1" source="4" target="GZBNLEmFhGwPz-_52qx3-183" edge="1">
          <mxGeometry width="50" height="50" relative="1" as="geometry">
            <mxPoint x="100" y="9" as="sourcePoint" />
            <mxPoint x="-90" y="79" as="targetPoint" />
            <Array as="points" />
          </mxGeometry>
        </mxCell>
        <mxCell id="GZBNLEmFhGwPz-_52qx3-183" value="&lt;span style=&quot;color: rgb(0, 102, 204); font-family: Helvetica; font-size: 12px; font-style: normal; font-variant-ligatures: normal; font-variant-caps: normal; font-weight: 700; letter-spacing: normal; orphans: 2; text-indent: 0px; text-transform: none; widows: 2; word-spacing: 0px; -webkit-text-stroke-width: 0px; text-decoration-thickness: initial; text-decoration-style: initial; text-decoration-color: initial; float: none; display: inline !important;&quot;&gt;main/master&lt;/span&gt;" style="text;whiteSpace=wrap;html=1;align=right;verticalAlign=middle;labelBackgroundColor=default;" parent="1" vertex="1">
          <mxGeometry x="-190" y="60.5" width="100" height="40" as="geometry" />
        </mxCell>
        <mxCell id="GZBNLEmFhGwPz-_52qx3-187" value="" style="endArrow=none;dashed=1;html=1;fillColor=#f8cecc;strokeColor=#b85450;endFill=0;" parent="1" source="GZBNLEmFhGwPz-_52qx3-204" target="6" edge="1">
          <mxGeometry width="50" height="50" relative="1" as="geometry">
            <mxPoint x="469" y="90" as="sourcePoint" />
            <mxPoint x="460" y="30" as="targetPoint" />
            <Array as="points">
              <mxPoint x="440" y="40" />
            </Array>
          </mxGeometry>
        </mxCell>
        <mxCell id="GZBNLEmFhGwPz-_52qx3-190" value="" style="ellipse;whiteSpace=wrap;html=1;aspect=fixed;fillColor=#f8cecc;strokeColor=#b85450;" parent="1" vertex="1">
          <mxGeometry x="747.94" y="69" width="20" height="20" as="geometry" />
        </mxCell>
        <mxCell id="GZBNLEmFhGwPz-_52qx3-191" value="" style="ellipse;whiteSpace=wrap;html=1;aspect=fixed;fillColor=#f8cecc;strokeColor=#b85450;" parent="1" vertex="1">
          <mxGeometry x="910" y="69.5" width="20" height="20" as="geometry" />
        </mxCell>
        <mxCell id="GZBNLEmFhGwPz-_52qx3-192" value="" style="endArrow=none;dashed=1;html=1;fillColor=#f8cecc;strokeColor=#b85450;entryX=0;entryY=0.5;entryDx=0;entryDy=0;endFill=0;exitX=1;exitY=0.5;exitDx=0;exitDy=0;" parent="1" source="GZBNLEmFhGwPz-_52qx3-204" target="GZBNLEmFhGwPz-_52qx3-188" edge="1">
          <mxGeometry width="50" height="50" relative="1" as="geometry">
            <mxPoint x="448.97000000000025" y="80" as="sourcePoint" />
            <mxPoint x="439" y="90" as="targetPoint" />
            <Array as="points" />
          </mxGeometry>
        </mxCell>
        <mxCell id="GZBNLEmFhGwPz-_52qx3-193" value="" style="endArrow=none;dashed=1;html=1;fillColor=#f8cecc;strokeColor=#b85450;entryX=0;entryY=0.5;entryDx=0;entryDy=0;endFill=0;" parent="1" target="GZBNLEmFhGwPz-_52qx3-190" edge="1">
          <mxGeometry width="50" height="50" relative="1" as="geometry">
            <mxPoint x="569" y="80" as="sourcePoint" />
            <mxPoint x="627" y="79" as="targetPoint" />
            <Array as="points" />
          </mxGeometry>
        </mxCell>
        <mxCell id="GZBNLEmFhGwPz-_52qx3-194" value="" style="endArrow=none;dashed=1;html=1;fillColor=#f8cecc;strokeColor=#b85450;endFill=0;exitX=1;exitY=0.5;exitDx=0;exitDy=0;entryX=0;entryY=0.5;entryDx=0;entryDy=0;" parent="1" source="GZBNLEmFhGwPz-_52qx3-190" target="GZBNLEmFhGwPz-_52qx3-191" edge="1">
          <mxGeometry width="50" height="50" relative="1" as="geometry">
            <mxPoint x="673" y="100" as="sourcePoint" />
            <mxPoint x="738" y="79" as="targetPoint" />
            <Array as="points" />
          </mxGeometry>
        </mxCell>
        <mxCell id="GZBNLEmFhGwPz-_52qx3-195" value="" style="edgeStyle=orthogonalEdgeStyle;rounded=1;orthogonalLoop=1;jettySize=auto;html=1;entryX=0;entryY=0.5;entryDx=0;entryDy=0;dashed=1;fillColor=#d5e8d4;strokeColor=#82b366;endArrow=none;endFill=0;" parent="1" source="6" edge="1">
          <mxGeometry relative="1" as="geometry">
            <Array as="points" />
            <mxPoint x="504" as="sourcePoint" />
            <mxPoint x="840" as="targetPoint" />
          </mxGeometry>
        </mxCell>
        <mxCell id="GZBNLEmFhGwPz-_52qx3-202" value="" style="endArrow=none;dashed=1;html=1;fillColor=#f8cecc;strokeColor=#b85450;entryX=0.5;entryY=1;entryDx=0;entryDy=0;endFill=0;" parent="1" source="GZBNLEmFhGwPz-_52qx3-190" edge="1">
          <mxGeometry width="50" height="50" relative="1" as="geometry">
            <mxPoint x="729" y="110" as="sourcePoint" />
            <mxPoint x="850" y="10" as="targetPoint" />
            <Array as="points">
              <mxPoint x="850" y="40" />
            </Array>
          </mxGeometry>
        </mxCell>
        <mxCell id="GZBNLEmFhGwPz-_52qx3-207" value="" style="endArrow=none;dashed=1;html=1;fillColor=#f8cecc;strokeColor=#b85450;entryX=0;entryY=0.5;entryDx=0;entryDy=0;endFill=0;" parent="1" source="Jbub15Q6l6OJpJLMfqSW-177" target="GZBNLEmFhGwPz-_52qx3-204" edge="1">
          <mxGeometry width="50" height="50" relative="1" as="geometry">
            <mxPoint x="90" y="80" as="sourcePoint" />
            <mxPoint x="389.97000000000025" y="80" as="targetPoint" />
            <Array as="points" />
          </mxGeometry>
        </mxCell>
        <mxCell id="GZBNLEmFhGwPz-_52qx3-204" value="" style="ellipse;whiteSpace=wrap;html=1;aspect=fixed;fillColor=#f8cecc;strokeColor=#b85450;fontStyle=1;labelPosition=center;verticalLabelPosition=top;align=center;verticalAlign=bottom;labelBorderColor=none;fontColor=#713232;" parent="1" vertex="1">
          <mxGeometry x="312" y="70" width="20" height="20" as="geometry" />
        </mxCell>
        <mxCell id="Jbub15Q6l6OJpJLMfqSW-173" value="" style="group" parent="1" vertex="1" connectable="0">
          <mxGeometry x="388.97" y="-49.5" width="100" height="60" as="geometry" />
        </mxCell>
        <mxCell id="6" value="" style="ellipse;whiteSpace=wrap;html=1;aspect=fixed;fillColor=#dae8fc;strokeColor=#6c8ebf;fontStyle=1;labelPosition=center;verticalLabelPosition=top;align=center;verticalAlign=bottom;fontColor=#0066CC;" parent="Jbub15Q6l6OJpJLMfqSW-173" vertex="1">
          <mxGeometry x="40" y="40" width="20" height="20" as="geometry" />
        </mxCell>
        <mxCell id="Jbub15Q6l6OJpJLMfqSW-172" value="&lt;div style=&quot;orphans: 2; widows: 2;&quot;&gt;&lt;font color=&quot;#0066cc&quot;&gt;&lt;span style=&quot;caret-color: rgb(0, 102, 204);&quot;&gt;&lt;b&gt;merge main to stable&lt;/b&gt;&lt;/span&gt;&lt;/font&gt;&lt;/div&gt;" style="text;whiteSpace=wrap;html=1;verticalAlign=middle;align=center;" parent="Jbub15Q6l6OJpJLMfqSW-173" vertex="1">
          <mxGeometry width="100" height="40" as="geometry" />
        </mxCell>
        <mxCell id="Jbub15Q6l6OJpJLMfqSW-175" value="" style="group" parent="1" vertex="1" connectable="0">
          <mxGeometry x="508.94" y="29" width="100.00000000000006" height="60" as="geometry" />
        </mxCell>
        <mxCell id="GZBNLEmFhGwPz-_52qx3-188" value="" style="ellipse;whiteSpace=wrap;html=1;aspect=fixed;fillColor=#f8cecc;strokeColor=#b85450;" parent="Jbub15Q6l6OJpJLMfqSW-175" vertex="1">
          <mxGeometry x="40.00000000000006" y="40" width="20" height="20" as="geometry" />
        </mxCell>
        <mxCell id="Jbub15Q6l6OJpJLMfqSW-176" value="" style="endArrow=none;dashed=1;html=1;fillColor=#f8cecc;strokeColor=#b85450;endFill=0;entryX=0;entryY=0.5;entryDx=0;entryDy=0;" parent="1" source="GZBNLEmFhGwPz-_52qx3-191" target="20" edge="1">
          <mxGeometry width="50" height="50" relative="1" as="geometry">
            <mxPoint x="951.06" y="100.5" as="sourcePoint" />
            <mxPoint x="920.06" y="89.5" as="targetPoint" />
            <Array as="points" />
          </mxGeometry>
        </mxCell>
        <mxCell id="Jbub15Q6l6OJpJLMfqSW-179" value="" style="endArrow=none;dashed=1;html=1;fillColor=#f8cecc;strokeColor=#b85450;entryX=0;entryY=0.5;entryDx=0;entryDy=0;endFill=0;" parent="1" target="Jbub15Q6l6OJpJLMfqSW-177" edge="1">
          <mxGeometry width="50" height="50" relative="1" as="geometry">
            <mxPoint x="-10" y="80" as="sourcePoint" />
            <mxPoint x="390" y="79" as="targetPoint" />
            <Array as="points" />
          </mxGeometry>
        </mxCell>
        <mxCell id="Jbub15Q6l6OJpJLMfqSW-177" value="main" style="ellipse;whiteSpace=wrap;html=1;aspect=fixed;fillColor=#f8cecc;strokeColor=#b85450;fontStyle=1;labelPosition=center;verticalLabelPosition=top;align=center;verticalAlign=bottom;fontColor=#B85450;" parent="1" vertex="1">
          <mxGeometry x="70" y="70" width="20" height="20" as="geometry" />
        </mxCell>
        <mxCell id="Jbub15Q6l6OJpJLMfqSW-182" value="" style="edgeStyle=orthogonalEdgeStyle;rounded=1;orthogonalLoop=1;jettySize=auto;html=1;dashed=1;endArrow=none;endFill=0;fillColor=#d5e8d4;strokeColor=#82b366;entryX=0;entryY=0.5;entryDx=0;entryDy=0;" parent="1" target="Jbub15Q6l6OJpJLMfqSW-180" edge="1">
          <mxGeometry relative="1" as="geometry">
            <mxPoint x="312" y="161" as="targetPoint" />
            <mxPoint x="90" y="161" as="sourcePoint" />
          </mxGeometry>
        </mxCell>
        <mxCell id="Jbub15Q6l6OJpJLMfqSW-180" value="&lt;font color=&quot;#82b366&quot;&gt;test&lt;/font&gt;" style="ellipse;whiteSpace=wrap;html=1;aspect=fixed;fillColor=#d5e8d4;strokeColor=#82b366;fontStyle=1;labelPosition=center;verticalLabelPosition=top;align=center;verticalAlign=bottom;" parent="1" vertex="1">
          <mxGeometry x="70" y="151" width="20" height="20" as="geometry" />
        </mxCell>
        <mxCell id="Jbub15Q6l6OJpJLMfqSW-184" value="&lt;font color=&quot;#82b366&quot;&gt;merge&lt;/font&gt;" style="ellipse;whiteSpace=wrap;html=1;aspect=fixed;fillColor=#d5e8d4;strokeColor=#82b366;fontStyle=1;labelPosition=center;verticalLabelPosition=top;align=center;verticalAlign=bottom;" parent="1" vertex="1">
          <mxGeometry x="312" y="151" width="20" height="20" as="geometry" />
        </mxCell>
        <mxCell id="Jbub15Q6l6OJpJLMfqSW-192" value="" style="edgeStyle=orthogonalEdgeStyle;rounded=1;orthogonalLoop=1;jettySize=auto;html=1;dashed=1;endArrow=none;endFill=0;fontSize=12;fontColor=#FFB570;fillColor=#e1d5e7;strokeColor=#D79B00;entryX=1;entryY=0.5;entryDx=0;entryDy=0;exitX=0.5;exitY=1;exitDx=0;exitDy=0;" parent="1" source="Jbub15Q6l6OJpJLMfqSW-184" target="Jbub15Q6l6OJpJLMfqSW-190" edge="1">
          <mxGeometry relative="1" as="geometry">
            <Array as="points" />
            <mxPoint x="330" y="190" as="sourcePoint" />
            <mxPoint x="250" y="241" as="targetPoint" />
          </mxGeometry>
        </mxCell>
        <mxCell id="Jbub15Q6l6OJpJLMfqSW-198" value="" style="group" parent="1" vertex="1" connectable="0">
          <mxGeometry x="90.00000000000003" y="231" width="60" height="60" as="geometry" />
        </mxCell>
        <mxCell id="Jbub15Q6l6OJpJLMfqSW-187" value="" style="ellipse;whiteSpace=wrap;html=1;aspect=fixed;fillColor=#ffe6cc;strokeColor=#d79b00;fontStyle=1;labelPosition=center;verticalLabelPosition=top;align=center;verticalAlign=bottom;fontColor=#D79B00;" parent="Jbub15Q6l6OJpJLMfqSW-198" vertex="1">
          <mxGeometry x="39.99999999999997" width="20" height="20" as="geometry" />
        </mxCell>
        <mxCell id="Jbub15Q6l6OJpJLMfqSW-195" value="&lt;span style=&quot;color: rgb(215, 155, 0); font-family: Helvetica; font-size: 12px; font-style: normal; font-variant-ligatures: normal; font-variant-caps: normal; font-weight: 700; letter-spacing: normal; orphans: 2; text-indent: 0px; text-transform: none; widows: 2; word-spacing: 0px; -webkit-text-stroke-width: 0px; background-color: rgb(251, 251, 251); text-decoration-thickness: initial; text-decoration-style: initial; text-decoration-color: initial; float: none; display: inline !important;&quot;&gt;feature 1&lt;/span&gt;" style="text;whiteSpace=wrap;html=1;align=center;" parent="Jbub15Q6l6OJpJLMfqSW-198" vertex="1">
          <mxGeometry x="20" y="20" width="60" height="40" as="geometry" />
        </mxCell>
        <mxCell id="Jbub15Q6l6OJpJLMfqSW-200" value="" style="group" parent="1" vertex="1" connectable="0">
          <mxGeometry x="110.00000000000003" y="311" width="60" height="60" as="geometry" />
        </mxCell>
        <mxCell id="Jbub15Q6l6OJpJLMfqSW-193" value="" style="ellipse;whiteSpace=wrap;html=1;aspect=fixed;fillColor=#fff2cc;strokeColor=#d6b656;fontStyle=1;labelPosition=center;verticalLabelPosition=top;align=center;verticalAlign=bottom;fontColor=#D6B656;" parent="Jbub15Q6l6OJpJLMfqSW-200" vertex="1">
          <mxGeometry x="19.99999999999997" width="20" height="20" as="geometry" />
        </mxCell>
        <mxCell id="Jbub15Q6l6OJpJLMfqSW-196" value="&lt;span style=&quot;color: rgb(214, 182, 86); font-family: Helvetica; font-size: 12px; font-style: normal; font-variant-ligatures: normal; font-variant-caps: normal; font-weight: 700; letter-spacing: normal; orphans: 2; text-indent: 0px; text-transform: none; widows: 2; word-spacing: 0px; -webkit-text-stroke-width: 0px; background-color: rgb(251, 251, 251); text-decoration-thickness: initial; text-decoration-style: initial; text-decoration-color: initial; float: none; display: inline !important;&quot;&gt;feature 2&lt;/span&gt;" style="text;whiteSpace=wrap;html=1;align=center;" parent="Jbub15Q6l6OJpJLMfqSW-200" vertex="1">
          <mxGeometry y="20" width="60" height="40" as="geometry" />
        </mxCell>
        <mxCell id="Jbub15Q6l6OJpJLMfqSW-201" value="" style="group" parent="1" vertex="1" connectable="0">
          <mxGeometry x="220" y="210" width="80" height="81" as="geometry" />
        </mxCell>
        <mxCell id="Jbub15Q6l6OJpJLMfqSW-197" value="&lt;span style=&quot;color: rgb(215, 155, 0); font-family: Helvetica; font-size: 12px; font-style: normal; font-variant-ligatures: normal; font-variant-caps: normal; font-weight: 700; letter-spacing: normal; orphans: 2; text-indent: 0px; text-transform: none; widows: 2; word-spacing: 0px; -webkit-text-stroke-width: 0px; background-color: rgb(251, 251, 251); text-decoration-thickness: initial; text-decoration-style: initial; text-decoration-color: initial; float: none; display: inline !important;&quot;&gt;commit module test&lt;/span&gt;" style="text;whiteSpace=wrap;html=1;align=center;" parent="Jbub15Q6l6OJpJLMfqSW-201" vertex="1">
          <mxGeometry y="41" width="80" height="54" as="geometry" />
        </mxCell>
        <mxCell id="Jbub15Q6l6OJpJLMfqSW-190" value="" style="ellipse;whiteSpace=wrap;html=1;aspect=fixed;fillColor=#ffe6cc;strokeColor=#d79b00;fontStyle=1;labelPosition=center;verticalLabelPosition=top;align=center;verticalAlign=bottom;fontColor=#D79B00;" parent="Jbub15Q6l6OJpJLMfqSW-201" vertex="1">
          <mxGeometry x="30" y="21" width="20" height="20" as="geometry" />
        </mxCell>
        <mxCell id="Jbub15Q6l6OJpJLMfqSW-202" value="" style="edgeStyle=orthogonalEdgeStyle;rounded=1;orthogonalLoop=1;jettySize=auto;html=1;dashed=1;endArrow=none;endFill=0;fontSize=12;fontColor=#FFB570;strokeColor=#D6B656;" parent="1" source="Jbub15Q6l6OJpJLMfqSW-204" target="Jbub15Q6l6OJpJLMfqSW-194" edge="1">
          <mxGeometry relative="1" as="geometry">
            <Array as="points">
              <mxPoint x="559" y="321" />
            </Array>
            <mxPoint x="519.94" y="171" as="sourcePoint" />
            <mxPoint x="300" y="320" as="targetPoint" />
          </mxGeometry>
        </mxCell>
        <mxCell id="Jbub15Q6l6OJpJLMfqSW-194" value="" style="ellipse;whiteSpace=wrap;html=1;aspect=fixed;fillColor=#fff2cc;strokeColor=#d6b656;fontStyle=1;labelPosition=center;verticalLabelPosition=top;align=center;verticalAlign=bottom;fontColor=#D6B656;" parent="1" vertex="1">
          <mxGeometry x="250" y="311" width="20" height="20" as="geometry" />
        </mxCell>
        <mxCell id="Jbub15Q6l6OJpJLMfqSW-203" value="&lt;span style=&quot;color: rgb(214, 182, 86); font-family: Helvetica; font-size: 12px; font-style: normal; font-variant-ligatures: normal; font-variant-caps: normal; font-weight: 700; letter-spacing: normal; orphans: 2; text-indent: 0px; text-transform: none; widows: 2; word-spacing: 0px; -webkit-text-stroke-width: 0px; background-color: rgb(251, 251, 251); text-decoration-thickness: initial; text-decoration-style: initial; text-decoration-color: initial; float: none; display: inline !important;&quot;&gt;commit module test&lt;/span&gt;" style="text;whiteSpace=wrap;html=1;align=center;" parent="1" vertex="1">
          <mxGeometry x="220" y="331" width="80" height="40" as="geometry" />
        </mxCell>
        <mxCell id="Jbub15Q6l6OJpJLMfqSW-204" value="&lt;font color=&quot;#82b366&quot;&gt;merge&lt;/font&gt;" style="ellipse;whiteSpace=wrap;html=1;aspect=fixed;fillColor=#d5e8d4;strokeColor=#82b366;fontStyle=1;labelPosition=center;verticalLabelPosition=top;align=center;verticalAlign=bottom;" parent="1" vertex="1">
          <mxGeometry x="548.94" y="151" width="20" height="20" as="geometry" />
        </mxCell>
        <mxCell id="hD3_SyljbXBIUWRUawrK-172" value="&lt;span style=&quot;color: rgb(130, 179, 102); font-family: Helvetica; font-size: 12px; font-style: normal; font-variant-ligatures: normal; font-variant-caps: normal; font-weight: 700; letter-spacing: normal; orphans: 2; text-indent: 0px; text-transform: none; widows: 2; word-spacing: 0px; -webkit-text-stroke-width: 0px; background-color: rgb(251, 251, 251); text-decoration-thickness: initial; text-decoration-style: initial; text-decoration-color: initial; float: none; display: inline !important;&quot;&gt;commit release test&lt;/span&gt;" style="text;whiteSpace=wrap;html=1;align=center;" parent="1" vertex="1">
          <mxGeometry x="643.97" y="171" width="70" height="40" as="geometry" />
        </mxCell>
        <mxCell id="hD3_SyljbXBIUWRUawrK-173" value="" style="endArrow=none;dashed=1;html=1;fillColor=#f8cecc;strokeColor=#82B366;endFill=0;" parent="1" source="29" target="GZBNLEmFhGwPz-_52qx3-188" edge="1">
          <mxGeometry width="50" height="50" relative="1" as="geometry">
            <mxPoint x="460" y="130" as="sourcePoint" />
            <mxPoint x="540" y="100" as="targetPoint" />
            <Array as="points">
              <mxPoint x="559" y="120" />
            </Array>
          </mxGeometry>
        </mxCell>
        <mxCell id="hD3_SyljbXBIUWRUawrK-174" value="&lt;span style=&quot;color: rgb(184, 84, 80); font-family: Helvetica; font-size: 12px; font-style: normal; font-variant-ligatures: normal; font-variant-caps: normal; font-weight: 700; letter-spacing: normal; orphans: 2; text-indent: 0px; text-transform: none; widows: 2; word-spacing: 0px; -webkit-text-stroke-width: 0px; background-color: rgb(251, 251, 251); text-decoration-thickness: initial; text-decoration-style: initial; text-decoration-color: initial; float: none; display: inline !important;&quot;&gt;test code to main&lt;/span&gt;" style="text;whiteSpace=wrap;html=1;align=center;" parent="1" vertex="1">
          <mxGeometry x="870" y="30.5" width="100" height="40" as="geometry" />
        </mxCell>
        <mxCell id="hD3_SyljbXBIUWRUawrK-175" value="" style="endArrow=none;dashed=1;html=1;fillColor=#f8cecc;strokeColor=#82B366;endFill=0;" parent="1" source="78" target="GZBNLEmFhGwPz-_52qx3-190" edge="1">
          <mxGeometry width="50" height="50" relative="1" as="geometry">
            <mxPoint x="690" y="130" as="sourcePoint" />
            <mxPoint x="569" y="99" as="targetPoint" />
            <Array as="points">
              <mxPoint x="758" y="120" />
            </Array>
          </mxGeometry>
        </mxCell>
        <mxCell id="hD3_SyljbXBIUWRUawrK-176" value="&lt;span style=&quot;color: rgb(130, 179, 102); font-family: Helvetica; font-size: 12px; font-style: normal; font-variant-ligatures: normal; font-variant-caps: normal; font-weight: 700; letter-spacing: normal; orphans: 2; text-indent: 0px; text-transform: none; widows: 2; word-spacing: 0px; -webkit-text-stroke-width: 0px; background-color: rgb(251, 251, 251); text-decoration-thickness: initial; text-decoration-style: initial; text-decoration-color: initial; float: none; display: inline !important;&quot;&gt;commit release test&lt;/span&gt;" style="text;whiteSpace=wrap;html=1;align=center;" parent="1" vertex="1">
          <mxGeometry x="403.97" y="171.5" width="70" height="40" as="geometry" />
        </mxCell>
        <mxCell id="hD3_SyljbXBIUWRUawrK-177" value="" style="group" parent="1" vertex="1" connectable="0">
          <mxGeometry x="800" y="-50" width="100" height="60" as="geometry" />
        </mxCell>
        <mxCell id="hD3_SyljbXBIUWRUawrK-178" value="" style="ellipse;whiteSpace=wrap;html=1;aspect=fixed;fillColor=#dae8fc;strokeColor=#6c8ebf;fontStyle=1;labelPosition=center;verticalLabelPosition=top;align=center;verticalAlign=bottom;fontColor=#0066CC;" parent="hD3_SyljbXBIUWRUawrK-177" vertex="1">
          <mxGeometry x="40" y="40" width="20" height="20" as="geometry" />
        </mxCell>
        <mxCell id="hD3_SyljbXBIUWRUawrK-179" value="&lt;div style=&quot;orphans: 2; widows: 2;&quot;&gt;&lt;font color=&quot;#0066cc&quot;&gt;&lt;span style=&quot;caret-color: rgb(0, 102, 204);&quot;&gt;&lt;b&gt;merge main to stable&lt;/b&gt;&lt;/span&gt;&lt;/font&gt;&lt;/div&gt;" style="text;whiteSpace=wrap;html=1;verticalAlign=middle;align=center;" parent="hD3_SyljbXBIUWRUawrK-177" vertex="1">
          <mxGeometry width="100" height="40" as="geometry" />
        </mxCell>
        <mxCell id="N0tSkVh2Kfnrl89oHz-F-172" style="edgeStyle=orthogonalEdgeStyle;rounded=1;orthogonalLoop=1;jettySize=auto;html=1;dashed=1;endArrow=none;endFill=0;fillColor=#d5e8d4;strokeColor=#82b366;entryX=0;entryY=0.5;entryDx=0;entryDy=0;exitX=0.5;exitY=1;exitDx=0;exitDy=0;" edge="1" parent="1" source="4" target="Jbub15Q6l6OJpJLMfqSW-180">
          <mxGeometry relative="1" as="geometry">
            <mxPoint x="23" y="170" as="targetPoint" />
            <mxPoint x="-20" y="120" as="sourcePoint" />
            <Array as="points">
              <mxPoint x="-20" y="161" />
            </Array>
          </mxGeometry>
        </mxCell>
        <mxCell id="Jbub15Q6l6OJpJLMfqSW-174" value="&lt;font color=&quot;#b85450&quot;&gt;&lt;span style=&quot;caret-color: rgb(184, 84, 80);&quot;&gt;&lt;b&gt;test code to main&lt;/b&gt;&lt;/span&gt;&lt;/font&gt;" style="text;whiteSpace=wrap;html=1;align=center;verticalAlign=middle;" parent="1" vertex="1">
          <mxGeometry x="508.94" y="29" width="100" height="40" as="geometry" />
        </mxCell>
      </root>
    </mxGraphModel>
  </diagram>
</mxfile>
